<svg width="80px" height="80px" viewBox="0 0 24 24" xmlns="http://www.w3.org/2000/svg"><path clip-rule="evenodd" d="m12 6.25c.4142 0 .75.33579.75.75v8.1893l2.7197-2.7196c.2929-.2929.7677-.2929 1.0606 0s.2929.7677 0 1.0606l-4 4c-.2145.2145-.5371.2787-.8173.1626-.2803-.1161-.463-.3896-.463-.6929v-10c0-.41421.3358-.75.75-.75zm-4.53033 6.2197c.29289-.2929.76777-.2929 1.06066 0l1.99997 2c.2929.2929.2929.7677 0 1.0606s-.76774.2929-1.06063 0l-2-2c-.29289-.2929-.29289-.7677 0-1.0606z" fill="rgb(255,255,255)" fill-rule="evenodd"/></svg>